<svg width="50" height="50" viewBox="0 0 50 50" fill="none" xmlns="http://www.w3.org/2000/svg">
<path d="M49 25C49 38.2548 38.2548 49 25 49V49C11.7452 49 1 38.2548 1 25V25C1 11.7452 11.7452 1 25 1V1C38.2548 1 49 11.7452 49 25V25Z" fill="white"/>
<path d="M18 25L32 25" stroke="black" stroke-width="2" stroke-linecap="round" stroke-linejoin="round"/>
<path d="M25 18L32 25L25 32" stroke="black" stroke-width="2" stroke-linecap="round" stroke-linejoin="round"/>
<path d="M25 2C37.7025 2 48 12.2975 48 25H50C50 11.1929 38.8071 0 25 0V2ZM2 25C2 12.2975 12.2975 2 25 2V0C11.1929 0 0 11.1929 0 25H2ZM25 48C12.2975 48 2 37.7025 2 25H0C0 38.8071 11.1929 50 25 50V48ZM25 50C38.8071 50 50 38.8071 50 25H48C48 37.7025 37.7025 48 25 48V50Z" fill="black"/>
</svg>
